# xmcd
#
# Track frame offsets: 
#        150
#        25167
#        49455
#        70720
#        83302
#        99977
#        112672
#        135742
#        152417
#        168457
#        179960
#
# Disc length: 2819 seconds
#
# Revision: 1
# Processed by: cddbd v1.5.2PL0 Copyright (c) Steve Scherf et al.
# Submitted via: ExactAudioCopy v1.0b3
#
DISCID=830b010b
DTITLE=Johnny Winter - Second Winter
DYEAR=1969
DGENRE=Blues
TTITLE0=Memory pain
TTITLE1=I'm not shure
TTITLE2=The good love
TTITLE3=Slippin' and slidin'
TTITLE4=Miss Ann
TTITLE5=Johnny B Goode
TTITLE6=Highway 61 Revisited
TTITLE7=I Love Everybody
TTITLE8=Hustled down in Texas
TTITLE9=I hate everybody
TTITLE10=Fast Life Rider
EXTD=
EXTT0=
EXTT1=
EXTT2=
EXTT3=
EXTT4=
EXTT5=
EXTT6=
EXTT7=
EXTT8=
EXTT9=
EXTT10=
PLAYORDER=
